<svg xmlns="http://www.w3.org/2000/svg" width="2400" height="1350" viewBox="0 0 2400 1350" role="img" aria-label="Futuristic sneaker with digital sole pulse">
  <defs>
    <linearGradient id="g0" x1="0" y1="0" x2="1" y2="1">
      <stop offset="0" stop-color="#05070c"/>
      <stop offset="1" stop-color="#0b1020"/>
    </linearGradient>
    <radialGradient id="goldGlow" cx="30%" cy="24%" r="70%">
      <stop offset="0" stop-color="rgba(212,175,55,.26)"/>
      <stop offset="0.55" stop-color="rgba(212,175,55,.08)"/>
      <stop offset="1" stop-color="rgba(212,175,55,0)"/>
    </radialGradient>
    <radialGradient id="blueGlow" cx="80%" cy="18%" r="70%">
      <stop offset="0" stop-color="rgba(212,175,55,.14)"/>
      <stop offset="1" stop-color="rgba(120,180,255,0)"/>
    </radialGradient>
    <filter id="blur" x="-20%" y="-20%" width="140%" height="140%">
      <feGaussianBlur stdDeviation="8"/>
    </filter>
  </defs>

  <rect width="2400" height="1350" fill="url(#g0)"/>
  <rect width="2400" height="1350" fill="url(#goldGlow)"/>
  <rect width="2400" height="1350" fill="url(#blueGlow)"/>

  <g opacity="0.8"><path d="M 887.5 1126.2 Q 1540.6 990.4 2526.0 1158.6" stroke="rgba(243,210,122,0.068)" stroke-width="1.82" fill="none"/><path d="M 248.1 744.7 Q 206.8 737.6 272.8 1077.6" stroke="rgba(243,210,122,0.136)" stroke-width="1.70" fill="none"/><path d="M 2285.0 334.7 Q 1008.8 471.7 182.6 558.3" stroke="rgba(243,210,122,0.119)" stroke-width="2.06" fill="none"/><path d="M 2375.1 930.4 Q 1870.1 1023.2 853.9 750.1" stroke="rgba(243,210,122,0.089)" stroke-width="1.32" fill="none"/><path d="M 1834.2 14.2 Q 1283.1 707.9 591.9 988.9" stroke="rgba(243,210,122,0.089)" stroke-width="1.90" fill="none"/><path d="M 346.4 294.0 Q 721.3 916.9 1316.1 1248.2" stroke="rgba(243,210,122,0.126)" stroke-width="1.60" fill="none"/><path d="M 624.2 1326.8 Q 588.0 1051.8 870.1 764.9" stroke="rgba(243,210,122,0.083)" stroke-width="1.10" fill="none"/><path d="M 2152.3 -66.1 Q 1803.3 514.4 778.3 844.1" stroke="rgba(243,210,122,0.063)" stroke-width="2.04" fill="none"/><path d="M 1398.4 1151.3 Q 1364.2 833.6 831.6 165.8" stroke="rgba(243,210,122,0.089)" stroke-width="1.32" fill="none"/><path d="M 402.1 520.0 Q 1588.4 932.5 2076.9 1426.2" stroke="rgba(243,210,122,0.084)" stroke-width="2.03" fill="none"/><path d="M -125.2 169.7 Q 1221.4 563.3 1819.6 1018.4" stroke="rgba(243,210,122,0.117)" stroke-width="2.16" fill="none"/><path d="M 1501.8 174.8 Q 1886.1 907.8 2475.4 1334.0" stroke="rgba(243,210,122,0.119)" stroke-width="1.75" fill="none"/><path d="M 378.0 1091.9 Q 68.0 909.6 44.5 521.6" stroke="rgba(243,210,122,0.107)" stroke-width="1.51" fill="none"/><path d="M 1371.3 204.7 Q 791.7 206.7 -171.6 547.0" stroke="rgba(243,210,122,0.107)" stroke-width="1.64" fill="none"/></g>
  <g><circle cx="181.1" cy="84.0" r="3.2" fill="rgba(212,175,55,0.053)"/><circle cx="2223.3" cy="186.2" r="2.7" fill="rgba(212,175,55,0.076)"/><circle cx="1496.9" cy="1273.7" r="3.6" fill="rgba(212,175,55,0.117)"/><circle cx="2259.0" cy="683.1" r="5.7" fill="rgba(212,175,55,0.139)"/><circle cx="2179.6" cy="1193.5" r="4.5" fill="rgba(212,175,55,0.062)"/><circle cx="2135.7" cy="577.8" r="4.0" fill="rgba(212,175,55,0.100)"/><circle cx="2232.8" cy="526.0" r="4.6" fill="rgba(212,175,55,0.071)"/><circle cx="1001.4" cy="844.7" r="2.4" fill="rgba(212,175,55,0.082)"/><circle cx="514.8" cy="197.6" r="3.5" fill="rgba(212,175,55,0.081)"/><circle cx="609.0" cy="412.9" r="3.4" fill="rgba(212,175,55,0.053)"/><circle cx="1425.1" cy="476.3" r="5.1" fill="rgba(212,175,55,0.130)"/><circle cx="2176.5" cy="369.4" r="5.9" fill="rgba(212,175,55,0.075)"/><circle cx="422.6" cy="526.3" r="3.4" fill="rgba(212,175,55,0.087)"/><circle cx="894.2" cy="396.3" r="5.7" fill="rgba(212,175,55,0.069)"/><circle cx="1568.0" cy="1339.6" r="5.1" fill="rgba(212,175,55,0.100)"/><circle cx="346.7" cy="1188.9" r="3.4" fill="rgba(212,175,55,0.127)"/><circle cx="2082.1" cy="391.8" r="3.3" fill="rgba(212,175,55,0.071)"/><circle cx="1710.3" cy="1020.4" r="6.0" fill="rgba(212,175,55,0.140)"/><circle cx="639.8" cy="304.7" r="5.3" fill="rgba(212,175,55,0.062)"/><circle cx="1178.3" cy="647.1" r="2.5" fill="rgba(212,175,55,0.139)"/><circle cx="1398.1" cy="1283.6" r="2.6" fill="rgba(212,175,55,0.052)"/><circle cx="1230.2" cy="1306.3" r="3.0" fill="rgba(212,175,55,0.085)"/><circle cx="171.3" cy="1019.9" r="2.4" fill="rgba(212,175,55,0.081)"/><circle cx="492.1" cy="34.6" r="2.2" fill="rgba(212,175,55,0.127)"/><circle cx="1701.1" cy="1206.4" r="5.9" fill="rgba(212,175,55,0.054)"/><circle cx="141.9" cy="430.0" r="5.0" fill="rgba(212,175,55,0.076)"/><circle cx="1497.8" cy="348.9" r="2.8" fill="rgba(212,175,55,0.117)"/><circle cx="2303.1" cy="686.7" r="2.4" fill="rgba(212,175,55,0.095)"/><circle cx="742.9" cy="993.4" r="2.8" fill="rgba(212,175,55,0.135)"/><circle cx="185.7" cy="732.2" r="3.4" fill="rgba(212,175,55,0.125)"/><circle cx="1927.1" cy="455.6" r="4.3" fill="rgba(212,175,55,0.111)"/><circle cx="1929.3" cy="689.5" r="4.0" fill="rgba(212,175,55,0.135)"/><circle cx="215.2" cy="96.9" r="6.0" fill="rgba(212,175,55,0.127)"/><circle cx="672.5" cy="302.6" r="4.9" fill="rgba(212,175,55,0.112)"/><circle cx="595.9" cy="806.9" r="5.0" fill="rgba(212,175,55,0.062)"/><circle cx="349.4" cy="651.1" r="4.5" fill="rgba(212,175,55,0.058)"/><circle cx="2345.2" cy="504.4" r="2.8" fill="rgba(212,175,55,0.131)"/><circle cx="1001.7" cy="472.1" r="2.2" fill="rgba(212,175,55,0.110)"/></g>

  <g filter="url(#blur)" opacity="0.9">
    <circle cx="1752.0" cy="621.0" r="210" fill="rgba(255,255,255,.04)"/>
  </g>

  <g><circle cx="1752.0" cy="621.0" r="160" fill="none" stroke="rgba(212,175,55,0.180)" stroke-width="1.2"/><circle cx="1752.0" cy="621.0" r="215" fill="none" stroke="rgba(212,175,55,0.150)" stroke-width="1.2"/><circle cx="1752.0" cy="621.0" r="270" fill="none" stroke="rgba(212,175,55,0.120)" stroke-width="1.2"/><circle cx="1752.0" cy="621.0" r="325" fill="none" stroke="rgba(212,175,55,0.090)" stroke-width="1.2"/></g>

  <g>
    <rect x="1562.0" y="555.0" width="380" height="132" rx="26" fill="rgba(255,255,255,.05)" stroke="rgba(255,255,255,.10)"/>
    <text x="1752.0" y="613.0" text-anchor="middle" font-family="ui-sans-serif,system-ui" font-size="50" fill="rgba(245,247,255,.92)" letter-spacing="2">W3</text>
    <text x="1752.0" y="655.0" text-anchor="middle" font-family="ui-sans-serif,system-ui" font-size="22" fill="rgba(245,247,255,.60)" letter-spacing="1">w3.shoes</text>
  </g>

  <g opacity="0.9">
    <circle cx="432.0" cy="1053.0" r="280" fill="rgba(212,175,55,.06)"/>
    <circle cx="432.0" cy="1053.0" r="279" fill="none" stroke="rgba(255,255,255,.06)"/>
  </g>
</svg>